<?xml version="1.0" encoding="UTF-8"?>
<svg version="1.1" xmlns="http://www.w3.org/2000/svg" width="500" height="500">
<path d="M0 0 C4.55414273 2.97959465 7.34338797 3.39155855 12.88354492 3.19384766 C40.26770591 2.63357133 40.26770591 2.63357133 49.4597168 11.05273438 C50.62194219 12.17195086 51.77388003 13.30193958 52.91577148 14.44189453 C56.6182869 17.83382782 60.89808225 20.45336706 65.08666992 23.20166016 C66.67875762 24.25883925 68.26754019 25.32102003 69.85229492 26.38916016 C70.86211426 27.06011719 70.86211426 27.06011719 71.89233398 27.74462891 C74.08540351 29.38805419 75.94105682 31.22675482 77.83666992 33.20166016 C77.28523315 34.38755737 77.28523315 34.38755737 76.72265625 35.59741211 C75.33377537 38.58486979 73.94531789 41.57252353 72.55712891 44.56030273 C71.96093921 45.84325678 71.36459015 47.12613678 70.76806641 48.40893555 C67.08784157 56.32343085 63.43178256 64.24802572 59.83666992 72.20166016 C60.49062744 72.04777832 61.14458496 71.89389648 61.81835938 71.73535156 C76.09028016 68.46747487 90.35367266 70.27340878 103.21166992 77.38916016 C125.23372706 91.48446871 135.8085076 114.96591194 141.39868164 139.68701172 C142.72723602 145.82969024 143.83536303 151.99788483 144.83666992 158.20166016 C145.01673584 159.27697998 145.01673584 159.27697998 145.20043945 160.37402344 C155.51905185 224.94608522 135.88763264 291.39817833 98.08666992 343.82666016 C93.4990706 350.08290335 88.82072159 356.25446154 83.83666992 362.20166016 C83.17417236 362.99733398 83.17417236 362.99733398 82.49829102 363.80908203 C75.94568664 371.65908019 69.18437212 379.0831757 61.83666992 386.20166016 C59.16734726 388.85362137 56.51901108 391.52416335 53.89135742 394.21728516 C47.20660116 401.03944971 40.33706717 407.27202673 32.83666992 413.20166016 C31.63131542 414.19374924 30.42833717 415.18872992 29.22729492 416.18603516 C13.2553879 429.41468336 -3.60995528 441.17260207 -21.16333008 452.20166016 C-22.76772949 453.21486328 -22.76772949 453.21486328 -24.40454102 454.24853516 C-27.78945415 456.38073171 -31.19369411 458.48015078 -34.60083008 460.57666016 C-35.67341064 461.25003418 -36.74599121 461.9234082 -37.85107422 462.6171875 C-39.36495728 463.53685303 -39.36495728 463.53685303 -40.90942383 464.47509766 C-41.80330811 465.02601074 -42.69719238 465.57692383 -43.61816406 466.14453125 C-46.69289486 467.42161368 -48.03582097 467.23560769 -51.16333008 466.20166016 C-53.09082031 465.30395508 -53.09082031 465.30395508 -54.97192383 464.18212891 C-55.70338623 463.74739258 -56.43484863 463.31265625 -57.18847656 462.86474609 C-58.38259155 462.13433105 -58.38259155 462.13433105 -59.60083008 461.38916016 C-60.88292358 460.61040527 -60.88292358 460.61040527 -62.19091797 459.81591797 C-88.18858873 443.83488287 -113.35108007 426.52849908 -136.16333008 406.20166016 C-137.47624023 405.03763672 -137.47624023 405.03763672 -138.81567383 403.85009766 C-141.27820934 401.64820966 -143.72144254 399.42640637 -146.16333008 397.20166016 C-147.17465869 396.2949748 -148.18639763 395.38874698 -149.19848633 394.48291016 C-154.17027934 390.01169016 -158.98252358 385.53197227 -163.28051758 380.39306641 C-165.20590942 378.15210204 -167.22476964 376.01672156 -169.26147461 373.87719727 C-176.31942654 366.42086718 -182.56915536 358.46981585 -188.66870117 350.21826172 C-190.00321956 348.41768643 -191.35550141 346.6324991 -192.71411133 344.85009766 C-232.18227406 292.27395396 -249.26776361 225.74345518 -240.57836914 160.7277832 C-239.03074658 150.42392088 -236.85431995 140.26514059 -234.16333008 130.20166016 C-233.97544922 129.4986377 -233.78756836 128.79561523 -233.59399414 128.07128906 C-227.34881698 105.55636784 -213.99740141 88.07271735 -196.45263672 72.99755859 C-192.34870072 69.41473739 -188.48905695 65.6399951 -184.66333008 61.76416016 C-183.98334961 61.08039307 -183.30336914 60.39662598 -182.6027832 59.69213867 C-180.45382082 57.53108961 -178.30815729 55.3668129 -176.16333008 53.20166016 C-173.33299171 50.34449999 -170.49920335 47.49082561 -167.66333008 44.63916016 C-166.71296875 43.67635132 -166.71296875 43.67635132 -165.7434082 42.6940918 C-162.64858968 39.5826301 -159.50628452 36.59063314 -156.18188477 33.72460938 C-152.03483463 30.14306608 -148.19715178 26.31164176 -144.36645508 22.39697266 C-142.898004 20.91100012 -141.42924423 19.42533257 -139.96020508 17.93994141 C-137.68853173 15.63745078 -135.41927948 13.33273179 -133.15551758 11.02246094 C-93.29837809 -29.60717102 -46.40941299 -32.77436694 0 0 Z " fill="#050505" transform="translate(292.163330078125,27.79833984375)"/>
<path d="M0 0 C10.75681244 6.73974555 16.2116746 19.4025273 20 31 C20.34675781 32.03125 20.69351562 33.0625 21.05078125 34.125 C24.48586026 45.15969395 26.28337643 56.59038183 28 68 C28.10820068 68.69617432 28.21640137 69.39234863 28.32788086 70.10961914 C29.28183047 77.21616081 29.18607754 84.38924921 29.18530273 91.54614258 C29.1874852 93.79723143 29.20568513 96.04782577 29.22460938 98.29882812 C29.25628373 106.73221248 28.76752074 114.71117895 27 123 C22.09526099 118.88670129 17.4780472 114.61457539 12.97265625 110.0703125 C12.02198524 109.11751907 12.02198524 109.11751907 11.05210876 108.14547729 C9.05318594 106.14101284 7.05779216 104.13307786 5.0625 102.125 C3.69749867 100.75497611 2.3322664 99.38518226 0.96679688 98.015625 C-2.35814211 94.67973457 -5.67992353 91.34072964 -9 88 C-10.70886979 89.08248691 -12.41706871 90.16603294 -14.125 91.25 C-15.07632812 91.85328125 -16.02765625 92.4565625 -17.0078125 93.078125 C-20.02756709 95.01770627 -23.01377471 97.00918314 -26 99 C-33.92 91.08 -41.84 83.16 -50 75 C-54.00021216 77.00010608 -56.08999341 78.85848171 -59.203125 82.0078125 C-59.9271048 82.73603714 -59.9271048 82.73603714 -60.66571045 83.47897339 C-62.19858562 85.02299866 -63.72434004 86.57384824 -65.25 88.125 C-66.29120361 89.17624009 -67.33286541 90.22702657 -68.375 91.27734375 C-70.92199464 93.84633004 -73.46265177 96.42148161 -76 99 C-80.5373289 96.4849263 -84.76075337 93.84388639 -88.9375 90.75 C-89.89527344 90.04359375 -90.85304688 89.3371875 -91.83984375 88.609375 C-92.55269531 88.07828125 -93.26554688 87.5471875 -94 87 C-94.25523437 87.58136719 -94.51046875 88.16273438 -94.7734375 88.76171875 C-97.84016848 94.35801446 -103.48742677 98.60281544 -108.25 102.75 C-108.90484375 103.32234375 -109.5596875 103.8946875 -110.234375 104.484375 C-111.6324755 105.68451437 -113.06120402 106.84896322 -114.5 108 C-116.79724626 111.06299502 -116.3696686 113.24170253 -116 117 C-115.53092376 119.31755464 -115.00305699 121.61240606 -114.4453125 123.91015625 C-113.93364709 126.31139305 -113.84206497 128.5520071 -114 131 C-115.98 131 -117.96 131 -120 131 C-119.16601461 134.93316798 -118.32977512 138.86584926 -117.49145508 142.7980957 C-117.20665679 144.13552923 -116.92247193 145.47309354 -116.63891602 146.81079102 C-116.23094875 148.73488182 -115.82058327 150.65846363 -115.41015625 152.58203125 C-115.16402588 153.73936768 -114.91789551 154.8967041 -114.66430664 156.08911133 C-114.0400971 159.0417502 -114.0400971 159.0417502 -113 162 C-103.17116036 168.15800776 -93.3269615 169.33391363 -82 168 C-78.42630402 167.05148552 -75.29169011 165.66553893 -72 164 C-61.67242309 158.98035671 -49.86550335 158.18417119 -38.68359375 160.765625 C-35.21886803 162.0076035 -31.97076847 163.51625006 -28.6796875 165.15625 C-20.00362481 169.16499184 -9.2852635 169.6949515 -0.125 166.75 C1.26124082 166.19390723 2.6362709 165.6092173 4 165 C5.76831225 164.26474051 7.53922482 163.53570802 9.3125 162.8125 C10.11300781 162.46832031 10.91351563 162.12414062 11.73828125 161.76953125 C14 161 14 161 18 161 C11.98827237 191.12773846 -8.69963056 220.84228271 -28 244 C-28.49242187 244.59393555 -28.98484375 245.18787109 -29.4921875 245.79980469 C-35.67070644 253.22108409 -42.04759326 260.28779157 -49 267 C-51.59639683 269.5795097 -54.1717211 272.17614944 -56.7265625 274.796875 C-63.14262065 281.35752348 -69.78632596 287.31101268 -77 293 C-78.14345758 293.93171858 -79.285303 294.86541816 -80.42578125 295.80078125 C-94.40841863 307.22187142 -109.18452183 317.51343891 -124.4921875 327.08203125 C-127.22576209 328.7990473 -129.54006422 330.4622108 -132.0078125 332.57421875 C-134.90992883 334.88954353 -136.27068298 335.82982256 -140 336 C-147.36439243 333.42497698 -153.69159792 328.46246444 -160 324 C-161.71134612 322.83660753 -163.42485807 321.67639399 -165.140625 320.51953125 C-184.52115355 307.32709937 -202.68832411 292.79357508 -220 277 C-221.01254315 276.091915 -222.02558718 275.18438828 -223.0390625 274.27734375 C-228.05554684 269.76632414 -232.91131693 265.24206848 -237.25 260.05859375 C-239.29784315 257.64963541 -241.46152569 255.36812567 -243.625 253.0625 C-262.47723577 232.32504065 -297 190.9242813 -297 161 C-291.21090154 161.3859399 -286.83615443 163.28705283 -281.6484375 165.84375 C-273.48606365 169.40726425 -262.70877889 169.61942131 -254.30859375 166.73046875 C-252.16724011 165.71065838 -250.0482858 164.64124878 -247.96484375 163.5078125 C-238.35339985 158.61977911 -225.26925457 158.05068553 -214.89453125 161.015625 C-210.3304211 162.63972422 -205.98376829 164.52122517 -201.62890625 166.640625 C-197.44749903 168.20696484 -194.10400967 168.49841737 -189.6875 168.4375 C-188.56927856 168.43049072 -188.56927856 168.43049072 -187.4284668 168.42333984 C-182.19663783 168.28361235 -177.9137839 167.40899754 -173.17578125 165.0703125 C-170.5268411 163.7672432 -167.81029096 162.89253876 -165 162 C-164.86722656 161.10796875 -164.73445312 160.2159375 -164.59765625 159.296875 C-164.42105469 158.12640625 -164.24445313 156.9559375 -164.0625 155.75 C-163.88847656 154.58984375 -163.71445313 153.4296875 -163.53515625 152.234375 C-163.1272264 149.76893039 -162.66098697 147.40575438 -162 145 C-162.99515625 145.5053125 -163.9903125 146.010625 -165.015625 146.53125 C-177.75936073 152.60639251 -191.43899538 155.06329823 -205.125 150.25 C-207.56866975 149.19246132 -209.93452117 148.03268421 -212.31640625 146.84375 C-220.98867378 142.843363 -230.48730129 142.44862829 -239.63671875 145.0234375 C-243.43171438 146.47796544 -247.10888912 148.13989324 -250.80737305 149.82202148 C-256.18616328 152.07499883 -261.01340234 152.50618081 -266.8125 152.4375 C-267.69470215 152.43137695 -268.5769043 152.42525391 -269.48583984 152.41894531 C-276.32739692 152.25512096 -281.81658592 150.98056724 -288 148 C-289.7867841 147.25894937 -291.57844775 146.52954498 -293.375 145.8125 C-294.53128906 145.32716797 -294.53128906 145.32716797 -295.7109375 144.83203125 C-298.12313156 143.95524399 -300.47494563 143.44166145 -303 143 C-303 141.35 -303 139.7 -303 138 C-295.22805822 138.0358154 -289.05206482 140.41944682 -282.1015625 143.625 C-274.07121444 147.18505355 -263.50661857 147.47958906 -255.125 144.75 C-253.73676486 144.19890476 -252.36124199 143.61475445 -251 143 C-250.20722656 142.65195312 -249.41445312 142.30390625 -248.59765625 141.9453125 C-247.07249162 141.26801087 -245.55329626 140.5769589 -244.04296875 139.8671875 C-235.16419533 136.09837737 -221.85757124 136.48187045 -212.9375 139.75 C-210.47782718 140.80146319 -208.10117446 141.94880745 -205.71484375 143.15625 C-197.32795535 147.07666528 -187.50784576 147.40246598 -178.48046875 145.45703125 C-176.24759796 144.67140323 -176.24759796 144.67140323 -173 143 C-171.23524473 142.25624362 -169.4640238 141.52769081 -167.6875 140.8125 C-166.86636719 140.46832031 -166.04523438 140.12414062 -165.19921875 139.76953125 C-163 139 -163 139 -160 139 C-159.67 136.36 -159.34 133.72 -159 131 C-160.98 131 -162.96 131 -165 131 C-164.67 128.69 -164.34 126.38 -164 124 C-164.83144531 124.34933594 -165.66289062 124.69867188 -166.51953125 125.05859375 C-167.60621094 125.51363281 -168.69289062 125.96867188 -169.8125 126.4375 C-170.89144531 126.88996094 -171.97039062 127.34242188 -173.08203125 127.80859375 C-182.3528793 131.59387977 -194.98703894 131.68181092 -204.6171875 128.98828125 C-207.17880054 127.78004167 -209.58551741 126.47771612 -212 125 C-219.90554334 120.75719267 -230.27637843 120.48148816 -238.87109375 122.76171875 C-241.306271 123.7474785 -243.64967506 124.82681926 -246 126 C-256.54200034 131.19206672 -268.95511085 131.82078323 -280.3828125 129.234375 C-283.01291964 128.29023398 -285.48698863 127.2193065 -288 126 C-294.4646927 123.17169695 -299.92625623 121.45637057 -307 121 C-307.95458649 112.64736824 -308.11039334 104.40215965 -308 96 C-297.41640517 98.62724149 -287.13894335 102.21229962 -276.8125 105.6875 C-274.98381798 106.3004108 -273.15504266 106.91304331 -271.32617188 107.52539062 C-266.88303222 109.01372018 -262.44117286 110.5058123 -258 112 C-258.33 115.3 -258.66 118.6 -259 122 C-258.20078125 121.60167969 -257.4015625 121.20335937 -256.578125 120.79296875 C-242.61097177 114.05529272 -229.25542108 110.29387272 -214 115 C-210.95960917 116.11736026 -207.97930359 117.35479431 -205 118.625 C-204.22527344 118.94984375 -203.45054687 119.2746875 -202.65234375 119.609375 C-200.76607668 120.40114142 -198.88272299 121.19984273 -197 122 C-197.33 118.7 -197.66 115.4 -198 112 C-193.5712322 110.61134775 -189.14210297 109.22385629 -184.71264648 107.83740234 C-183.20831672 107.366361 -181.70408325 106.89501203 -180.19995117 106.42333984 C-178.02808963 105.74233851 -175.85587512 105.0624733 -173.68359375 104.3828125 C-172.68784584 104.07018967 -172.68784584 104.07018967 -171.67198181 103.75125122 C-167.46231858 102.43563833 -163.24318601 101.21233886 -159 100 C-157.68 94.39 -156.36 88.78 -155 83 C-158.8671875 84.85625 -158.8671875 84.85625 -162.8125 86.75 C-175.42360821 92.76067773 -188.21585734 98.36993067 -201 104 C-203.5 101.75 -203.5 101.75 -206 99 C-206 94.50018349 -206 94.50018349 -203.7265625 91.56640625 C-202.99191772 90.60359741 -202.99191772 90.60359741 -202.24243164 89.62133789 C-201.7086792 88.94192139 -201.17492676 88.26250488 -200.625 87.5625 C-200.0777124 86.8502124 -199.5304248 86.1379248 -198.96655273 85.40405273 C-197.31915913 83.26294337 -195.66001607 81.13132844 -194 79 C-193.14325975 77.88639373 -192.28767555 76.77189648 -191.43359375 75.65625 C-189.83168844 73.56611984 -188.22695909 71.47856802 -186.6171875 69.39453125 C-183.62836724 65.5223894 -180.65772615 61.63641312 -177.6875 57.75 C-176.86910645 56.67939331 -176.86910645 56.67939331 -176.03417969 55.5871582 C-174.35595985 53.39156099 -172.67794596 51.19580653 -171 49 C-168.77106607 46.08315537 -166.5418896 43.16649637 -164.3125 40.25 C-163.77455811 39.54601074 -163.23661621 38.84202148 -162.68237305 38.11669922 C-160.17388908 34.83557923 -157.66149858 31.55766443 -155.13671875 28.2890625 C-154.68965576 27.70995117 -154.24259277 27.13083984 -153.78198242 26.53417969 C-152.59539088 24.9984577 -151.40714255 23.46401623 -150.21875 21.9296875 C-148.08845486 19.26663702 -148.08845486 19.26663702 -147.02257252 17.21058559 C-145.40090946 14.41387061 -144.16979194 12.37055842 -140.9977932 11.36575508 C-138.48267659 11.13697355 -136.05276266 11.1338539 -133.52807617 11.20532227 C-132.58124969 11.20430008 -131.63442322 11.20327789 -130.65890503 11.20222473 C-127.53577552 11.20709368 -124.41558605 11.26150295 -121.29296875 11.31640625 C-119.1253672 11.32946489 -116.95774496 11.3394278 -114.79011536 11.34642029 C-109.08988217 11.37312456 -103.39090115 11.44186919 -97.69116211 11.51934814 C-91.87305643 11.59100518 -86.05474805 11.62293716 -80.23632812 11.65820312 C-68.82366913 11.73323635 -57.41193876 11.85268052 -46 12 C-45.71511719 11.39027344 -45.43023437 10.78054687 -45.13671875 10.15234375 C-41.88721291 3.99949935 -35.22654664 -0.8936453 -28.73046875 -3.12109375 C-18.94876212 -5.42568432 -8.79152081 -5.1203363 0 0 Z " fill="#020202" transform="translate(384,129)"/>
<path d="M0 0 C3.69454504 2.71373735 6.87836508 5.64817258 10 9 C10.63421875 9.67675781 11.2684375 10.35351562 11.921875 11.05078125 C36.67776368 40.13347348 36.84529689 90.28801311 34.63745117 125.91162109 C30.43409834 177.69651744 4.77029812 227.32335254 -29 266 C-29.63808594 266.73863281 -30.27617187 267.47726562 -30.93359375 268.23828125 C-32.6099811 270.17019185 -34.30258668 272.08655226 -36 274 C-36.6496875 274.7425 -37.299375 275.485 -37.96875 276.25 C-46.684437 286.10251574 -55.91790517 295.53988752 -66 304 C-66.96292969 304.82886719 -67.92585938 305.65773438 -68.91796875 306.51171875 C-76.40822429 312.94529085 -84.08300789 319.09831939 -92 325 C-92.65033203 325.48694336 -93.30066406 325.97388672 -93.97070312 326.47558594 C-105.4840413 335.05914239 -117.3794198 342.93514612 -129.58447266 350.49951172 C-131.69439228 351.8101612 -133.79182218 353.13821665 -135.88671875 354.47265625 C-136.93472656 355.12105469 -137.98273438 355.76945312 -139.0625 356.4375 C-140.34833984 357.23994141 -140.34833984 357.23994141 -141.66015625 358.05859375 C-144.61340659 359.24679631 -145.95369225 358.8156656 -149 358 C-151.10205078 356.99121094 -151.10205078 356.99121094 -153.1953125 355.734375 C-153.98365479 355.26338379 -154.77199707 354.79239258 -155.58422852 354.30712891 C-156.42268311 353.79327637 -157.2611377 353.27942383 -158.125 352.75 C-159.00663818 352.2142334 -159.88827637 351.6784668 -160.79663086 351.12646484 C-184.51418248 336.56650581 -206.92830066 320.01691789 -227.48828125 301.265625 C-229.56646961 299.39105385 -231.67036444 297.55857296 -233.7890625 295.73046875 C-238.05233166 292.00651982 -242.07257825 288.07564147 -246.0625 284.0625 C-246.73087891 283.39798828 -247.39925781 282.73347656 -248.08789062 282.04882812 C-252.59664227 277.53131311 -256.86339442 272.85961388 -261 268 C-261.51344971 267.39857178 -262.02689941 266.79714355 -262.5559082 266.17749023 C-292.07046509 231.27675273 -314.64146315 189.21250922 -323 144 C-323.15098145 143.21302734 -323.30196289 142.42605469 -323.45751953 141.61523438 C-328.08624331 116.62911377 -327.49472134 89.94943351 -323 65 C-322.83951172 64.09523926 -322.67902344 63.19047852 -322.51367188 62.25830078 C-318.65190549 40.90121827 -318.65190549 40.90121827 -316 35 C-315.01 34.505 -315.01 34.505 -314 34 C-313.17803394 36.01700159 -312.36786783 38.03881369 -311.5625 40.0625 C-310.88380859 41.75052734 -310.88380859 41.75052734 -310.19140625 43.47265625 C-307.49165643 51.46568604 -308.38017681 57.64587153 -309.9375 65.75 C-311.44040989 73.60679627 -312.29397027 80.99054727 -312 89 C-307.43269059 91.15080089 -302.86521772 93.30125418 -298.29760742 95.45141602 C-296.7510154 96.17951577 -295.20446442 96.90770268 -293.65795898 97.63598633 C-292.54239624 98.16131958 -292.54239624 98.16131958 -291.40429688 98.69726562 C-290.66063873 99.04751801 -289.91698059 99.39777039 -289.15078735 99.75863647 C-287.6511072 100.46415399 -286.15092285 101.16860075 -284.65023804 101.87197876 C-280.98137094 103.59195229 -277.31984042 105.32442034 -273.67236328 107.08935547 C-272.98993057 107.41636948 -272.30749786 107.74338348 -271.60438538 108.08030701 C-269.74764742 108.97041971 -267.89433099 109.86765959 -266.04125977 110.76538086 C-262.92934374 112.2507624 -262.92934374 112.2507624 -259 112 C-256.99034226 110.40383995 -256.99034226 110.40383995 -256 108 C-257.3112521 102.78370514 -261.02316115 98.86222599 -264.3125 94.75 C-265.57345932 93.15016714 -266.8338617 91.54989519 -268.09375 89.94921875 C-269.06054688 88.725979 -269.06054688 88.725979 -270.046875 87.47802734 C-273.16158607 83.52623767 -276.24277675 79.54928847 -279.3125 75.5625 C-279.8691333 74.84739258 -280.4257666 74.13228516 -280.99926758 73.39550781 C-281.51126709 72.7300293 -282.0232666 72.06455078 -282.55078125 71.37890625 C-283.00106689 70.7969751 -283.45135254 70.21504395 -283.9152832 69.61547852 C-285 68 -285 68 -286 65 C-279.73477426 63.56376112 -273.82850193 62.82000678 -268 66 C-261.46725395 73.13395086 -257.09941758 82.08711498 -252.72900391 90.65087891 C-250.91464684 94.16533108 -248.98261645 97.57834395 -247 101 C-244.36 100.67 -241.72 100.34 -239 100 C-239.13631836 98.10278198 -239.13631836 98.10278198 -239.27539062 96.16723633 C-239.61547577 91.41690713 -239.94946665 86.66616478 -240.28173828 81.9152832 C-240.42561697 79.86992056 -240.57108756 77.82466918 -240.71826172 75.77954102 C-241.19190911 69.18875364 -241.62462009 62.59713182 -242 56 C-242.07516846 54.72084717 -242.15033691 53.44169434 -242.2277832 52.1237793 C-242.48205144 44.19978061 -240.80386735 37.63337907 -238.1875 30.1875 C-237.83107422 29.12080078 -237.47464844 28.05410156 -237.10742188 26.95507812 C-235.62297215 22.54530912 -234.06955715 18.16804056 -232.43281555 13.81269836 C-232.02970893 12.73951087 -232.02970893 12.73951087 -231.61845875 11.64464283 C-231.41436736 11.1019107 -231.21027597 10.55917856 -231 10 C-230.11670045 10.00222061 -229.2334009 10.00444122 -228.32333469 10.00672913 C-206.8144769 10.05805145 -185.30599844 10.06518386 -163.79711246 10.02334595 C-153.39544755 10.00417489 -142.99417595 9.99987047 -132.5925293 10.03076172 C-123.52467596 10.05765388 -114.45733215 10.05645084 -105.3894977 10.02174091 C-100.58950144 10.0043425 -95.79041766 10.00085692 -90.99046516 10.03103638 C-86.46821508 10.05902537 -81.94758038 10.04931976 -77.42541885 10.01126289 C-75.76988115 10.00387193 -74.1142164 10.01000685 -72.45879555 10.03101921 C-61.80970328 10.27070684 -61.80970328 10.27070684 -52.76390076 5.1171875 C-52.14056571 4.41706543 -51.51723066 3.71694336 -50.87500668 2.99560547 C-38.35049071 -10.33447644 -14.32215635 -8.71159948 0 0 Z M-50.5625 17.75 C-52.17946309 19.83589856 -52.17946309 19.83589856 -52 22 C-53.78286407 21.94670532 -53.78286407 21.94670532 -55.60174561 21.89233398 C-66.84024833 21.56702997 -78.07778878 21.32770288 -89.31994247 21.17100525 C-95.09925255 21.08772726 -100.8747438 20.97494116 -106.65185547 20.79296875 C-112.23488627 20.61822413 -117.81426296 20.52328201 -123.39981842 20.48196411 C-125.52287592 20.45255199 -127.64574793 20.39510433 -129.7672348 20.30831909 C-140.98581053 19.54256925 -140.98581053 19.54256925 -151.06046104 23.56949615 C-154.70191559 27.3424426 -157.40414724 31.56612815 -159.93599033 36.13712692 C-161.30954597 38.54195453 -162.95296809 40.65867133 -164.70703125 42.796875 C-165.22289795 43.45461914 -165.73876465 44.11236328 -166.27026367 44.79003906 C-167.03367065 45.76021973 -167.03367065 45.76021973 -167.8125 46.75 C-173.50918052 54.02931437 -179.07035108 61.4024843 -184.59814453 68.81054688 C-188.65101185 74.23129659 -192.7773172 79.58268757 -196.984375 84.88427734 C-202.46666765 91.81351545 -207.72552773 98.91214023 -213 106 C-211.55140574 109.38005327 -209.62669829 111.4587228 -207 114 C-201.09129255 111.33184462 -195.18314737 108.66244724 -189.27539062 105.9921875 C-187.26575423 105.08402386 -185.25598951 104.17614416 -183.24609375 103.26855469 C-180.35643228 101.96363839 -177.46723453 100.65770026 -174.578125 99.3515625 C-173.23104462 98.74364365 -173.23104462 98.74364365 -171.85675049 98.1234436 C-171.01618103 97.74320038 -170.17561157 97.36295715 -169.30957031 96.97119141 C-168.57232727 96.63809967 -167.83508423 96.30500793 -167.07550049 95.96182251 C-165.02913718 95.01350267 -163.01183777 94.01925782 -161 93 C-162.37959742 104.81038539 -162.37959742 104.81038539 -165 110 C-168.42642889 112.48657771 -171.78079947 112.97779987 -175.91943359 113.60595703 C-180.01201169 114.38105924 -183.92708718 115.81822362 -187.875 117.125 C-193.22729975 118.83832093 -198.58816128 120.48468516 -204 122 C-203.505 126.95 -203.505 126.95 -203 132 C-204.30195313 131.43410156 -205.60390625 130.86820312 -206.9453125 130.28515625 C-208.67172624 129.54392426 -210.39829707 128.80305807 -212.125 128.0625 C-212.9809375 127.68931641 -213.836875 127.31613281 -214.71875 126.93164062 C-228.15831854 121.19397867 -240.34801033 122.12762512 -254 127 C-257.73211204 128.54447309 -261.38468516 130.19972077 -265 132 C-264.67 128.7 -264.34 125.4 -264 122 C-270.79804537 119.71754432 -277.59737751 117.43897996 -284.39794922 115.1640625 C-286.71276348 114.3890987 -289.02721811 113.61305987 -291.34130859 112.8359375 C-294.66150163 111.72114892 -297.9829554 110.61019288 -301.3046875 109.5 C-302.34430634 109.15001953 -303.38392517 108.80003906 -304.45504761 108.43945312 C-305.41589264 108.11912109 -306.37673767 107.79878906 -307.36669922 107.46875 C-308.21497284 107.18451172 -309.06324646 106.90027344 -309.93722534 106.60742188 C-311.96136663 105.90584135 -311.96136663 105.90584135 -314 106 C-314.11039334 114.40215965 -313.95458649 122.64736824 -313 131 C-311.80375 131.04125 -310.6075 131.0825 -309.375 131.125 C-303.57331786 131.74005175 -298.68366978 134.10288708 -293.4296875 136.52734375 C-281.8464127 141.5010278 -267.61100756 142.29857085 -255.75 137.6875 C-253.12767357 136.52054816 -250.56347426 135.28118794 -247.99609375 134 C-240.22398511 130.50842636 -230.02652752 130.38470155 -222.02734375 133.27734375 C-217.82371838 134.99956484 -213.78712565 137.06745101 -209.76171875 139.16796875 C-205.38532254 140.4864587 -201.04757131 140.42561343 -196.5 140.4375 C-195.5212793 140.44064209 -194.54255859 140.44378418 -193.53417969 140.44702148 C-185.44271306 140.31403488 -179.21753023 138.79542538 -172 135 C-171.34 134.67 -170.68 134.34 -170 134 C-170.33 136.31 -170.66 138.62 -171 141 C-169.02 141 -167.04 141 -165 141 C-165.33 143.64 -165.66 146.28 -166 149 C-166.556875 149.09796875 -167.11375 149.1959375 -167.6875 149.296875 C-172.64084595 150.26746306 -176.76056279 151.6447571 -181.17578125 154.09765625 C-188.2530517 157.59840459 -198.88448423 157.44441779 -206.39160156 155.32470703 C-210.18676679 153.95810296 -213.83842762 152.34171626 -217.48828125 150.62890625 C-223.19856053 147.98020051 -227.97813946 147.78847783 -234.1875 147.75 C-235.00025391 147.729375 -235.81300781 147.70875 -236.65039062 147.6875 C-244.17048992 147.63963938 -250.66231759 149.48745362 -257.25 153.125 C-265.15974453 157.48550019 -275.99849219 157.42350607 -284.5546875 154.98828125 C-287.74452879 153.73861401 -290.87178463 152.39585706 -294 151 C-299.12430858 149.02733384 -303.42307694 147.57100592 -309 148 C-309 149.65 -309 151.3 -309 153 C-307.76636719 153.36351562 -307.76636719 153.36351562 -306.5078125 153.734375 C-300.22087337 155.62190869 -294.08335965 157.64132347 -288.0234375 160.16796875 C-278.65811043 164.01896231 -265.91005166 163.56538561 -256.52832031 159.94946289 C-253.65203877 158.70354155 -250.82940242 157.34833251 -248 156 C-240.01096472 152.84252982 -230.24994088 152.26041462 -222.08984375 155.2734375 C-219.76381687 156.29340651 -217.45801084 157.36180494 -215.18359375 158.4921875 C-204.63329012 163.48901842 -190.99329826 164.2903445 -179.9140625 160.43359375 C-175.83822156 158.82453351 -171.90603395 156.98337475 -168 155 C-168.2165625 155.97582031 -168.433125 156.95164062 -168.65625 157.95703125 C-168.9346875 159.22933594 -169.213125 160.50164062 -169.5 161.8125 C-169.7784375 163.07707031 -170.056875 164.34164062 -170.34375 165.64453125 C-171.09596992 168.92086334 -171.09596992 168.92086334 -171 172 C-171.78375 172.2475 -172.5675 172.495 -173.375 172.75 C-176.78732246 173.8353882 -176.78732246 173.8353882 -179.02734375 175.0234375 C-187.41492811 179.06668329 -197.3838424 179.92584274 -206.36523438 177.31152344 C-210.16848136 175.9460543 -213.83266216 174.34698982 -217.48828125 172.62890625 C-226.91783466 168.25501996 -240.40055845 168.22264211 -250.125 171.75 C-252.52944012 172.77785227 -254.8084701 173.89442672 -257.09765625 175.15625 C-264.90509275 179.24238499 -274.1450216 179.1863586 -282.6796875 177.45703125 C-284.86068656 176.75460984 -286.9084224 175.93436831 -289 175 C-290.76831225 174.26474051 -292.53922482 173.53570802 -294.3125 172.8125 C-295.51326172 172.29623047 -295.51326172 172.29623047 -296.73828125 171.76953125 C-299.23296065 170.78526139 -299.23296065 170.78526139 -303 171 C-296.99041774 201.11698698 -276.30725821 230.85882278 -257 254 C-256.28529541 254.85899902 -256.28529541 254.85899902 -255.55615234 255.73535156 C-242.24255567 271.79937936 -242.24255567 271.79937936 -227.16796875 286.14453125 C-224.88831843 288.09558333 -222.70796649 290.13810003 -220.52587891 292.19702148 C-213.92089401 298.41031769 -207.04695799 304.1203143 -199.83007812 309.60693359 C-197.97837903 311.01645801 -196.13755294 312.43940603 -194.296875 313.86328125 C-184.33519236 321.51033763 -174.0068561 328.54548024 -163.46533203 335.36669922 C-161.16869428 336.88823879 -158.94001067 338.47414165 -156.71484375 340.09765625 C-150.59984802 344.66311436 -150.59984802 344.66311436 -143.33984375 345.6640625 C-140.9111664 344.42532444 -138.85387288 343.0005266 -136.72363281 341.30566406 C-133.87912298 339.15092772 -130.83284605 337.31681308 -127.81542969 335.41577148 C-102.7527874 319.52926012 -78.78844936 301.2266134 -58 280 C-55.49120406 277.47880474 -52.97143018 274.97220936 -50.421875 272.4921875 C-44.1300139 266.32910718 -38.42754024 259.9521302 -33 253 C-32.27707764 252.09169434 -32.27707764 252.09169434 -31.53955078 251.16503906 C-1.96323532 214.37558504 -1.96323532 214.37558504 12 171 C5.89865202 171.33896378 1.73088612 172.87815052 -3.60546875 175.84375 C-10.78394944 179.31003105 -21.30265709 179.60054939 -28.99707031 177.43896484 C-32.03452753 176.31635903 -34.91845625 174.94809017 -37.81640625 173.5078125 C-44.30208806 170.43606627 -50.18345103 169.61084283 -57.25 169.625 C-58.50961548 169.62741699 -58.50961548 169.62741699 -59.79467773 169.62988281 C-67.47668459 169.78113553 -73.45295969 171.69927533 -80.28515625 175.15625 C-90.42898957 179.8979417 -102.14997106 179.37448315 -112.75 176.3125 C-116.2339224 174.6544406 -118.35250353 173.35086368 -120.046875 169.81591797 C-121.82809245 164.55424211 -122.79085784 159.18309431 -123.59179688 153.69726562 C-124.23701337 149.43389727 -125.12304248 145.22078513 -126 141 C-124.02 141 -122.04 141 -120 141 C-120.56972342 135.15570299 -120.56972342 135.15570299 -121.5625 129.375 C-122.16514039 126.10352359 -122.28029196 123.32802353 -122 120 C-120.09375 117.375 -120.09375 117.375 -117.5 115 C-116.58992187 114.15179688 -115.67984375 113.30359375 -114.7421875 112.4296875 C-113.83726562 111.62789063 -112.93234375 110.82609375 -112 110 C-111.23945313 109.32195312 -110.47890625 108.64390625 -109.6953125 107.9453125 C-108.36799677 106.7782764 -107.03512252 105.61751431 -105.6953125 104.46484375 C-103.68745988 102.72994805 -101.7642285 100.98475706 -100 99 C-100 98.34 -100 97.68 -100 97 C-99.03578125 97.69867188 -98.0715625 98.39734375 -97.078125 99.1171875 C-95.80219231 100.03660959 -94.52614459 100.95587205 -93.25 101.875 C-92.61578125 102.33519531 -91.9815625 102.79539062 -91.328125 103.26953125 C-90.709375 103.71425781 -90.090625 104.15898437 -89.453125 104.6171875 C-88.88754883 105.02565918 -88.32197266 105.43413086 -87.73925781 105.85498047 C-85.68785866 107.25464501 -85.68785866 107.25464501 -82 109 C-74.08 101.08 -66.16 93.16 -58 85 C-53.99978784 87.00010608 -51.91000659 88.85848171 -48.796875 92.0078125 C-48.3142218 92.49329559 -47.8315686 92.97877869 -47.33428955 93.47897339 C-45.80141438 95.02299866 -44.27565996 96.57384824 -42.75 98.125 C-41.70879639 99.17624009 -40.66713459 100.22702657 -39.625 101.27734375 C-37.07800536 103.84633004 -34.53734823 106.42148161 -32 109 C-30.29113021 107.91751309 -28.58293129 106.83396706 -26.875 105.75 C-25.92367188 105.14671875 -24.97234375 104.5434375 -23.9921875 103.921875 C-20.97077238 101.98122717 -17.98230952 100.00000579 -15 98 C-14.56373795 98.43848267 -14.12747589 98.87696533 -13.67799377 99.32873535 C-9.15542655 103.87334844 -4.62940451 108.41449916 -0.10131836 112.95361328 C1.59033493 114.65030949 3.28109156 116.34790016 4.97094727 118.04638672 C7.3936679 120.48117482 9.81954712 122.91277569 12.24609375 125.34375 C13.38672523 126.49212341 13.38672523 126.49212341 14.55039978 127.66369629 C15.25105057 128.36442261 15.95170135 129.06514893 16.67358398 129.78710938 C17.29313461 130.40888062 17.91268524 131.03065186 18.55101013 131.67126465 C19.79517345 133.11264356 19.79517345 133.11264356 21 133 C22.92084145 123.66325169 23.39912885 114.49993225 23.375 105 C23.37512085 104.26510345 23.3752417 103.53020691 23.37536621 102.77304077 C23.32919416 82.87100738 21.03928824 63.02855103 15 44 C14.71640625 42.97648437 14.4328125 41.95296875 14.140625 40.8984375 C10.90680528 29.92047057 4.42592508 17.22608782 -5.375 10.8125 C-6.46941406 10.07966797 -6.46941406 10.07966797 -7.5859375 9.33203125 C-22.13079307 1.30647179 -39.66830811 6.05867212 -50.5625 17.75 Z " fill="#F7F7F7" transform="translate(390,119)"/>
<path d="M0 0 C10.43319967 7.29637344 18.43933707 8.52684678 31.09106445 8.21313477 C42.97450247 8.14753133 50.58475685 9.77120981 59.23950195 18.03735352 C59.7509375 18.55604004 60.26237305 19.07472656 60.78930664 19.60913086 C63.76561945 22.45630254 67.12665043 24.81256147 70.46606445 27.21313477 C69.87522042 30.73369393 68.95051025 33.64674699 67.3996582 36.85766602 C66.99682617 37.6987793 66.59399414 38.53989258 66.17895508 39.40649414 C65.75807617 40.27081055 65.33719727 41.13512695 64.90356445 42.02563477 C64.26644531 43.35111328 64.26644531 43.35111328 63.61645508 44.70336914 C62.57135021 46.87577814 61.52109684 49.04553434 60.46606445 51.21313477 C56.257863 51.30056277 52.0498967 51.35367118 47.84106445 51.40063477 C46.65125977 51.42577148 45.46145508 51.4509082 44.2355957 51.47680664 C36.34797476 51.54290402 31.48775628 51.16767788 25.65356445 45.46313477 C23.24878463 41.89031903 22.72143259 39.46927035 22.46606445 35.21313477 C20.81606445 35.21313477 19.16606445 35.21313477 17.46606445 35.21313477 C18.03489438 37.27968178 18.6217941 39.34125943 19.21606445 41.40063477 C19.5409082 42.54918945 19.86575195 43.69774414 20.20043945 44.88110352 C21.50154026 48.30653249 23.16162191 50.40899205 25.46606445 53.21313477 C25.38721593 56.91901512 24.54156634 59.07331646 22.77856445 62.33813477 C21.16772615 65.00968648 21.16772615 65.00968648 22.0715332 67.08032227 C23.88415387 69.85256564 26.07026067 71.92876371 28.46606445 74.21313477 C33.91676868 79.41031786 33.91676868 79.41031786 35.46606445 83.21313477 C30.02505858 83.98228219 25.39131242 84.34518057 20.53637695 81.49047852 C17.72451325 79.16850042 15.08138004 76.75406264 12.46606445 74.21313477 C10.82841631 72.68349103 9.18315521 71.1619358 7.52856445 69.65063477 C6.83891602 68.9893457 6.14926758 68.32805664 5.4387207 67.64672852 C3.33319484 65.82121082 3.33319484 65.82121082 -0.53393555 66.21313477 C0.22532227 67.02137695 0.98458008 67.82961914 1.7668457 68.66235352 C2.77098259 69.74156605 3.77487599 70.82100518 4.77856445 71.90063477 C5.27807617 72.43108398 5.77758789 72.9615332 6.29223633 73.50805664 C6.77885742 74.03334961 7.26547852 74.55864258 7.7668457 75.09985352 C8.43453979 75.81467896 8.43453979 75.81467896 9.11572266 76.54394531 C10.80931863 78.63743938 12.12119733 80.88421854 13.46606445 83.21313477 C-16.24432321 85.64403323 -16.24432321 85.64403323 -23.7409668 80.16625977 C-27.77924824 76.40777143 -31.06065712 72.15969163 -33.53393555 67.21313477 C-36.34992045 66.74414514 -36.34992045 66.74414514 -39.59643555 66.58813477 C-40.70116211 66.51336914 -41.80588867 66.43860352 -42.9440918 66.36157227 C-44.22606445 66.2880957 -44.22606445 66.2880957 -45.53393555 66.21313477 C-45.38956055 65.68848633 -45.24518555 65.16383789 -45.09643555 64.62329102 C-41.93567133 51.43149037 -41.81852072 37.61249071 -49.0065918 25.79125977 C-56.8789068 14.69929821 -67.81526501 9.93741502 -80.92456055 7.61157227 C-82.21620117 7.4143457 -82.21620117 7.4143457 -83.53393555 7.21313477 C-83.53393555 8.53313477 -83.53393555 9.85313477 -83.53393555 11.21313477 C-82.58518555 11.13063477 -81.63643555 11.04813477 -80.65893555 10.96313477 C-71.81774802 11.01660969 -63.60660611 16.10672714 -57.53393555 22.21313477 C-50.35184027 31.51970479 -47.15123047 40.43192312 -48.53393555 52.21313477 C-50.64908705 59.86089332 -53.82540364 65.90607606 -58.53393555 72.21313477 C-57.93444092 72.2015332 -57.33494629 72.18993164 -56.71728516 72.17797852 C-39.53811457 71.99238315 -39.53811457 71.99238315 -34.6159668 74.99047852 C-32.90663081 77.00596424 -31.64809215 78.82356206 -30.53393555 81.21313477 C-30.20393555 81.87313477 -29.87393555 82.53313477 -29.53393555 83.21313477 C-59.56393555 83.21313477 -89.59393555 83.21313477 -120.53393555 83.21313477 C-120.53393555 72.32313477 -120.53393555 61.43313477 -120.53393555 50.21313477 C-130.10393555 50.21313477 -139.67393555 50.21313477 -149.53393555 50.21313477 C-149.53393555 49.55313477 -149.53393555 48.89313477 -149.53393555 48.21313477 C-148.29370117 46.99633789 -148.29370117 46.99633789 -146.44018555 45.49438477 C-142.3214042 41.99197035 -138.49765808 38.26424938 -134.69018555 34.43188477 C-134.07280518 33.81120117 -133.4554248 33.19051758 -132.81933594 32.55102539 C-130.88890474 30.60699787 -128.96099492 28.66050443 -127.03393555 26.71313477 C-112.36466082 11.88925288 -112.36466082 11.88925288 -106.1628418 6.63696289 C-104.03047479 4.77305936 -102.1110089 2.74854986 -100.17382812 0.68554688 C-92.15257716 -7.81193505 -82.99277912 -13.94218728 -71.53393555 -16.78686523 C-70.39698242 -17.09237305 -70.39698242 -17.09237305 -69.23706055 -17.40405273 C-43.09932188 -23.32968914 -21.05798245 -14.99038783 0 0 Z " fill="#FAFAFA" transform="translate(280.533935546875,37.786865234375)"/>
<path d="M0 0 C4.55414273 2.97959465 7.34338797 3.39155855 12.88354492 3.19384766 C40.26770591 2.63357133 40.26770591 2.63357133 49.4597168 11.05273438 C50.62194219 12.17195086 51.77388003 13.30193958 52.91577148 14.44189453 C56.6182869 17.83382782 60.89808225 20.45336706 65.08666992 23.20166016 C66.67875762 24.25883925 68.26754019 25.32102003 69.85229492 26.38916016 C70.86211426 27.06011719 70.86211426 27.06011719 71.89233398 27.74462891 C74.08540351 29.38805419 75.94105682 31.22675482 77.83666992 33.20166016 C77.28523315 34.38755737 77.28523315 34.38755737 76.72265625 35.59741211 C75.33377537 38.58486979 73.94531789 41.57252353 72.55712891 44.56030273 C71.96093921 45.84325678 71.36459015 47.12613678 70.76806641 48.40893555 C67.08784157 56.32343085 63.43178256 64.24802572 59.83666992 72.20166016 C60.49062744 72.04777832 61.14458496 71.89389648 61.81835938 71.73535156 C76.09028016 68.46747487 90.35367266 70.27340878 103.21166992 77.38916016 C125.23372706 91.48446871 135.8085076 114.96591194 141.39868164 139.68701172 C142.72723602 145.82969024 143.83536303 151.99788483 144.83666992 158.20166016 C145.01673584 159.27697998 145.01673584 159.27697998 145.20043945 160.37402344 C155.51905185 224.94608522 135.88763264 291.39817833 98.08666992 343.82666016 C93.4990706 350.08290335 88.82072159 356.25446154 83.83666992 362.20166016 C83.17417236 362.99733398 83.17417236 362.99733398 82.49829102 363.80908203 C75.94568664 371.65908019 69.18437212 379.0831757 61.83666992 386.20166016 C59.16734726 388.85362137 56.51901108 391.52416335 53.89135742 394.21728516 C47.20660116 401.03944971 40.33706717 407.27202673 32.83666992 413.20166016 C31.63131542 414.19374924 30.42833717 415.18872992 29.22729492 416.18603516 C13.2553879 429.41468336 -3.60995528 441.17260207 -21.16333008 452.20166016 C-22.76772949 453.21486328 -22.76772949 453.21486328 -24.40454102 454.24853516 C-27.78945415 456.38073171 -31.19369411 458.48015078 -34.60083008 460.57666016 C-35.67341064 461.25003418 -36.74599121 461.9234082 -37.85107422 462.6171875 C-39.36495728 463.53685303 -39.36495728 463.53685303 -40.90942383 464.47509766 C-41.80330811 465.02601074 -42.69719238 465.57692383 -43.61816406 466.14453125 C-46.69289486 467.42161368 -48.03582097 467.23560769 -51.16333008 466.20166016 C-53.09082031 465.30395508 -53.09082031 465.30395508 -54.97192383 464.18212891 C-55.70338623 463.74739258 -56.43484863 463.31265625 -57.18847656 462.86474609 C-58.38259155 462.13433105 -58.38259155 462.13433105 -59.60083008 461.38916016 C-60.88292358 460.61040527 -60.88292358 460.61040527 -62.19091797 459.81591797 C-88.18858873 443.83488287 -113.35108007 426.52849908 -136.16333008 406.20166016 C-137.47624023 405.03763672 -137.47624023 405.03763672 -138.81567383 403.85009766 C-141.27820934 401.64820966 -143.72144254 399.42640637 -146.16333008 397.20166016 C-147.17465869 396.2949748 -148.18639763 395.38874698 -149.19848633 394.48291016 C-154.17027934 390.01169016 -158.98252358 385.53197227 -163.28051758 380.39306641 C-165.20590942 378.15210204 -167.22476964 376.01672156 -169.26147461 373.87719727 C-176.31942654 366.42086718 -182.56915536 358.46981585 -188.66870117 350.21826172 C-190.00321956 348.41768643 -191.35550141 346.6324991 -192.71411133 344.85009766 C-232.18227406 292.27395396 -249.26776361 225.74345518 -240.57836914 160.7277832 C-239.03074658 150.42392088 -236.85431995 140.26514059 -234.16333008 130.20166016 C-233.97544922 129.4986377 -233.78756836 128.79561523 -233.59399414 128.07128906 C-227.34881698 105.55636784 -213.99740141 88.07271735 -196.45263672 72.99755859 C-192.34870072 69.41473739 -188.48905695 65.6399951 -184.66333008 61.76416016 C-183.98334961 61.08039307 -183.30336914 60.39662598 -182.6027832 59.69213867 C-180.45382082 57.53108961 -178.30815729 55.3668129 -176.16333008 53.20166016 C-173.33299171 50.34449999 -170.49920335 47.49082561 -167.66333008 44.63916016 C-166.71296875 43.67635132 -166.71296875 43.67635132 -165.7434082 42.6940918 C-162.64858968 39.5826301 -159.50628452 36.59063314 -156.18188477 33.72460938 C-152.03483463 30.14306608 -148.19715178 26.31164176 -144.36645508 22.39697266 C-142.898004 20.91100012 -141.42924423 19.42533257 -139.96020508 17.93994141 C-137.68853173 15.63745078 -135.41927948 13.33273179 -133.15551758 11.02246094 C-93.29837809 -29.60717102 -46.40941299 -32.77436694 0 0 Z M-116.61645508 4.57666016 C-118.62210206 6.64383005 -120.61586179 8.48206288 -122.79907227 10.34619141 C-127.24334034 14.21482406 -131.39735591 18.32553008 -135.53833008 22.51416016 C-136.30709473 23.28671143 -137.07585937 24.0592627 -137.86791992 24.85522461 C-140.30218773 27.30160197 -142.73317114 29.75120156 -145.16333008 32.20166016 C-148.36869186 35.43379704 -151.57747081 38.6624855 -154.78833008 41.88916016 C-155.50939941 42.61852783 -156.23046875 43.34789551 -156.97338867 44.09936523 C-160.91504286 48.05977178 -164.96012025 51.80940836 -169.19155884 55.45697021 C-172.59815083 58.47123813 -175.78468143 61.70049148 -178.98754883 64.92822266 C-179.69684036 65.63892914 -180.4061319 66.34963562 -181.13691711 67.08187866 C-183.37727493 69.32777493 -185.6141152 71.57713643 -187.85083008 73.82666016 C-189.36166368 75.34251852 -190.87272948 76.8581455 -192.3840332 78.37353516 C-195.75722087 81.75660832 -199.12797201 85.14209029 -202.49711609 88.52919006 C-204.00132307 90.03904487 -205.50935448 91.54494565 -207.01879883 93.04956055 C-232.10818559 118.22749136 -235.35179023 159.66645618 -235.34863281 193.28344727 C-235.35081197 195.86768263 -235.36901958 198.45148455 -235.38793945 201.03564453 C-235.44244851 216.60140923 -234.16070656 231.7174787 -230.53833008 246.88916016 C-230.15028198 248.53198975 -230.15028198 248.53198975 -229.75439453 250.20800781 C-216.69269393 303.56988035 -185.73542607 348.85414305 -147.28833008 387.26416016 C-146.40846436 388.14322021 -145.52859863 389.02228027 -144.62207031 389.92797852 C-139.50835982 394.99349548 -134.3875967 399.81098111 -128.69848633 404.22509766 C-126.31438202 406.08389084 -124.02939451 408.02982444 -121.74951172 410.01416016 C-103.65920156 425.69595588 -83.4789688 438.94672454 -62.96411133 451.21337891 C-60.14383745 452.91397326 -57.55350537 454.60894519 -55.08129883 456.78369141 C-52.22185074 459.06674681 -50.8346624 460.01100508 -47.16333008 460.20166016 C-40.90646783 458.0889737 -35.50977572 454.01349579 -30.14428711 450.26708984 C-26.97853439 448.0736199 -23.76463379 445.9621926 -20.53442383 443.86572266 C-2.30055534 431.98741085 15.46569819 419.57330344 31.83666992 405.20166016 C32.93495117 404.25226563 32.93495117 404.25226563 34.05541992 403.28369141 C35.99426349 401.60259093 37.91568121 399.9031073 39.83666992 398.20166016 C40.50956055 397.62158203 41.18245117 397.04150391 41.87573242 396.44384766 C54.83141409 385.09093073 67.31516639 372.85597091 77.83666992 359.20166016 C78.75766075 358.07769894 79.68241191 356.95681262 80.61010742 355.83837891 C106.43735187 324.54307181 124.34849314 288.39447807 134.77416992 249.26416016 C135.05655518 248.22469238 135.33894043 247.18522461 135.62988281 246.11425781 C139.82526024 229.64389778 140.21084384 212.98402334 140.14916992 196.07666016 C140.14801178 195.09085968 140.14685364 194.1050592 140.1456604 193.08938599 C140.10165901 174.13439433 139.29137969 155.49098113 133.83666992 137.20166016 C133.49410455 135.89377624 133.15449394 134.58511639 132.81713867 133.27587891 C129.12124485 119.34458948 123.6354908 105.99550479 113.83666992 95.20166016 C113.22178711 94.50685547 112.6069043 93.81205078 111.97338867 93.09619141 C102.66011081 83.1483415 90.63303593 77.33973624 76.93115234 76.72924805 C61.39809699 76.51835831 48.21332642 81.79322975 36.83666992 92.20166016 C32.63961812 90.61036089 30.10434661 87.48105833 27.21166992 84.20166016 C26.24056097 83.11810701 25.26921626 82.03476509 24.29760742 80.95166016 C23.48549805 80.04416016 22.67338867 79.13666016 21.83666992 78.20166016 C21.17666992 77.54166016 20.51666992 76.88166016 19.83666992 76.20166016 C20.16666992 73.56166016 20.49666992 70.92166016 20.83666992 68.20166016 C28.75666992 68.20166016 36.67666992 68.20166016 44.83666992 68.20166016 C44.17666992 70.18166016 43.51666992 72.16166016 42.83666992 74.20166016 C45.47666992 74.20166016 48.11666992 74.20166016 50.83666992 74.20166016 C53.10234092 69.72727636 55.34708198 65.24307883 57.57348633 60.74902344 C58.45052926 58.98035975 59.33063158 57.21321117 60.21313477 55.44726562 C61.62098227 52.62137937 63.01164982 49.78757379 64.39916992 46.95166016 C64.85275879 46.04714111 65.30634766 45.14262207 65.77368164 44.21069336 C66.39460693 42.93005005 66.39460693 42.93005005 67.02807617 41.62353516 C67.40134033 40.8665332 67.77460449 40.10953125 68.15917969 39.32958984 C68.9800734 36.75124403 68.94943478 35.6643211 67.83666992 33.20166016 C66.04908891 31.50046847 66.04908891 31.50046847 63.75073242 30.02978516 C62.90124023 29.44712891 62.05174805 28.86447266 61.17651367 28.26416016 C60.28061523 27.66603516 59.3847168 27.06791016 58.46166992 26.45166016 C56.7239148 25.2705093 54.98694022 24.0882093 53.25073242 22.90478516 C52.35644531 22.31165527 51.4621582 21.71852539 50.54077148 21.10742188 C47.83666992 19.20166016 47.83666992 19.20166016 45.28100586 16.98730469 C37.41710369 10.35554144 30.60522142 10.22276001 20.83666992 10.57666016 C10.3721106 10.90231063 2.68188299 10.3718798 -6.16333008 4.20166016 C-6.82655273 3.76660156 -7.48977539 3.33154297 -8.1730957 2.88330078 C-9.94268316 1.70674371 -11.6776518 0.48999996 -13.41333008 -0.73583984 C-28.68723767 -11.16588864 -43.64462184 -16.36332777 -62.28833008 -16.11083984 C-63.48586914 -16.1140625 -64.6834082 -16.11728516 -65.91723633 -16.12060547 C-85.40493677 -16.00320968 -103.13208665 -9.95968027 -116.61645508 4.57666016 Z " fill="#F5F5F5" transform="translate(292.163330078125,27.79833984375)"/>
<path d="M0 0 C0.99 0 1.98 0 3 0 C5.8290397 14.72043964 8.64814769 29.44275192 11.45861816 44.16674805 C11.94353506 46.70449803 12.42985938 49.24197149 12.91699219 51.77929688 C13.6385686 55.53916044 14.35158016 59.30060557 15.0625 63.0625 C15.26576904 64.11606689 15.46903809 65.16963379 15.6784668 66.25512695 C16.54895056 70.9020028 17.24850397 75.24635955 17 80 C15.35 80 13.7 80 12 80 C13.09792341 87.22264971 14.45374233 94.37749878 15.9453125 101.52734375 C16.12100769 102.37027985 16.29670288 103.21321594 16.47772217 104.08169556 C17.21208414 107.59504307 17.94959856 111.10770465 18.69189453 114.61938477 C19.23905549 117.21281362 19.78007169 119.80746588 20.3203125 122.40234375 C20.57338669 123.58678322 20.57338669 123.58678322 20.83157349 124.79515076 C21.61901959 128.59481166 22.2089182 132.09420145 22 136 C16.25 136.125 16.25 136.125 14 135 C14.15033691 135.70743851 14.30067383 136.41487701 14.45556641 137.14375305 C15.87134232 143.80859441 17.28421302 150.47404568 18.69381714 157.14019489 C19.41862197 160.56735759 20.14455083 163.99427416 20.87304688 167.4206543 C21.71037651 171.35915995 22.54281912 175.29868446 23.375 179.23828125 C23.63748535 180.46960281 23.8999707 181.70092438 24.17041016 182.96955872 C24.41065918 184.11051498 24.6509082 185.25147125 24.8984375 186.42700195 C25.21820557 187.93590752 25.21820557 187.93590752 25.54443359 189.47529602 C26 192 26 192 26 195 C20.24877171 194.19159442 15.05587547 191.64844838 9.76953125 189.3515625 C2.51878721 186.37814814 -2.62430875 187.22549313 -9.75195312 190.171875 C-10.71004883 190.58179688 -10.71004883 190.58179688 -11.6875 191 C-15.418884 192.56799486 -19.04679422 194.08343992 -23 195 C-21.51139881 184.13419065 -19.29353314 173.46833449 -17 162.75 C-16.64030431 161.05475551 -16.28092754 159.35944332 -15.921875 157.6640625 C-14.31700162 150.10115194 -12.68720295 142.54502305 -11 135 C-13.64 135.33 -16.28 135.66 -19 136 C-18.4487227 129.10940795 -17.40488465 122.4730646 -15.93359375 115.72265625 C-15.73524429 114.78949081 -15.53689484 113.85632538 -15.33253479 112.8948822 C-14.70591742 109.94964631 -14.07226612 107.00598945 -13.4375 104.0625 C-12.80000389 101.09385063 -12.16409068 98.12488879 -11.53175354 95.15513611 C-11.13988271 93.31587932 -10.74492578 91.47727672 -10.34654236 89.63941956 C-10.16958328 88.81103073 -9.99262421 87.98264191 -9.81030273 87.12915039 C-9.65343491 86.40208389 -9.49656708 85.6750174 -9.33494568 84.92591858 C-8.91432859 82.83319887 -8.91432859 82.83319887 -9 80 C-10.65 80 -12.3 80 -14 80 C-14.125 74.25 -14.125 74.25 -13 72 C-12.63473747 69.67145135 -12.30649316 67.33701038 -12 65 C-11.11111111 58.22222222 -11.11111111 58.22222222 -10 56 C-9.63473747 53.67145135 -9.30649316 51.33701038 -9 49 C-8.11111111 42.22222222 -8.11111111 42.22222222 -7 40 C-6.53113821 37.04348296 -6.0985707 34.08960734 -5.6875 31.125 C-4.18660439 20.66380553 -2.16721244 10.34101367 0 0 Z " fill="#F7F7F7" transform="translate(243,170)"/>
<path d="M0 0 C2.70418752 1.69279244 4.95530178 3.54447524 7 6 C7.67943171 9.12565436 7.89819721 11.19663504 7.79467773 14.30029297 C7.79569992 15.11071548 7.79672211 15.921138 7.79777527 16.75611877 C7.79292051 19.41950365 7.73858698 22.07940619 7.68359375 24.7421875 C7.67052985 26.59447354 7.66056942 28.44678386 7.65357971 30.29910278 C7.62691613 35.16263191 7.55820909 40.02468598 7.48065186 44.88763428 C7.40890548 49.85457404 7.37704392 54.82175336 7.34179688 59.7890625 C7.26683594 69.52668799 7.14744301 79.2632211 7 89 C3.125 87.125 3.125 87.125 2 86 C1.89632419 83.61281782 1.85638033 81.2536305 1.8581543 78.86572266 C1.85467987 78.11937057 1.85120544 77.37301849 1.84762573 76.60404968 C1.84025606 74.97800064 1.83491716 73.35194146 1.83133507 71.72587967 C1.82419111 69.15411383 1.80854063 66.58254119 1.78999329 64.01083374 C1.73742404 56.69702805 1.68952878 49.38332651 1.67407227 42.06933594 C1.6640074 37.60056879 1.63472021 33.13228441 1.59275246 28.66370773 C1.58041451 26.95807924 1.57532628 25.25238263 1.57755089 23.54671097 C1.5798961 21.16163636 1.55779909 18.77795335 1.5300293 16.39306641 C1.53663071 15.68541641 1.54323212 14.97776642 1.55003357 14.24867249 C1.55241053 12.04920094 1.55241053 12.04920094 1 9 C-0.32 8.01 -1.64 7.02 -3 6 C-3.33 31.74 -3.66 57.48 -4 84 C-15.62097591 90.45609773 -27.05976254 94.09101511 -40.34863281 90.33642578 C-44.02061047 88.97952897 -47.54049796 87.34493027 -51.0859375 85.69140625 C-56.24628049 83.32466105 -61.38148448 82.64008405 -67 82 C-67.33 76.72 -67.66 71.44 -68 66 C-64.35478519 66.72904296 -62.30115751 67.16159662 -59.1875 68.7421875 C-58.16269531 69.25845703 -58.16269531 69.25845703 -57.1171875 69.78515625 C-56.41851562 70.14480469 -55.71984375 70.50445312 -55 70.875 C-53.95199219 71.40287109 -53.95199219 71.40287109 -52.8828125 71.94140625 C-49.16288718 73.82944382 -45.56679424 75.83235627 -42 78 C-42.24669434 77.11803955 -42.49338867 76.2360791 -42.74755859 75.32739258 C-45.43535416 65.51457205 -47.62313781 55.66035319 -49.625 45.6875 C-49.92667058 44.20239006 -50.2287528 42.71736367 -50.53125 41.23242188 C-51.10602717 38.40755445 -51.67657587 35.58189191 -52.24316406 32.75537109 C-52.70580314 30.45978585 -53.17490717 28.16547643 -53.65527344 25.87353516 C-53.83864258 24.99358887 -54.02201172 24.11364258 -54.2109375 23.20703125 C-54.3661084 22.47589111 -54.5212793 21.74475098 -54.68115234 20.99145508 C-55 19 -55 19 -55 15 C-52.36 15 -49.72 15 -47 15 C-48.485 7.575 -48.485 7.575 -50 0 C-46 1 -46 1 -43.1875 2 C-32.52321301 5.34565866 -19.38099566 5.21797915 -9.1875 0.3125 C-5.37947796 -1.25550907 -3.87201508 -1.37133867 0 0 Z " fill="#F6F6F6" transform="translate(322,301)"/>
<path d="M0 0 C1.31172882 0.50201967 2.62428399 1.00188358 3.9375 1.5 C4.618125 1.76425781 5.29875 2.02851563 6 2.30078125 C17.76730763 6.41474232 30.4860444 3.2897016 42 0 C41.01 4.95 40.02 9.9 39 15 C43.455 14.505 43.455 14.505 48 14 C47.64844849 15.66470337 47.64844849 15.66470337 47.28979492 17.36303711 C45.40385415 26.30282782 43.53108503 35.24520563 41.67578125 44.19140625 C41.08672702 47.02600604 40.49739674 49.86054829 39.90795898 52.69506836 C39.50470506 54.63693687 39.10238915 56.57900036 38.70092773 58.52124023 C38.11177919 61.37016895 37.51912839 64.21834945 36.92578125 67.06640625 C36.74662674 67.93705215 36.56747223 68.80769806 36.38288879 69.70472717 C35.11382373 75.77235254 35.11382373 75.77235254 34 78 C34.61520508 77.66677734 35.23041016 77.33355469 35.86425781 76.99023438 C38.65495842 75.4848772 41.45231896 73.992341 44.25 72.5 C45.21808594 71.97535156 46.18617188 71.45070313 47.18359375 70.91015625 C48.58544922 70.16572266 48.58544922 70.16572266 50.015625 69.40625 C50.87446289 68.94541016 51.73330078 68.48457031 52.61816406 68.00976562 C55 67 55 67 59 67 C59 71.95 59 76.9 59 82 C57.35 82.20625 55.7 82.4125 54 82.625 C45.39847618 84.03121571 36.80191976 87.09904012 29 91 C18.9057849 91.6361024 10.14018357 91.78854741 1 87 C-0.65 86.34 -2.3 85.68 -4 85 C-4.33 58.93 -4.66 32.86 -5 6 C-9.31625096 8.50506973 -9.31625096 8.50506973 -9.4853363 12.25706482 C-9.49943749 13.6198043 -9.49153036 14.98287546 -9.46655273 16.34545898 C-9.46885895 17.09049683 -9.47116516 17.83553467 -9.47354126 18.60314941 C-9.47617122 20.22044731 -9.46972172 21.83777954 -9.45528984 23.45501518 C-9.43343313 26.0149054 -9.43710963 28.57361196 -9.44776917 31.13356018 C-9.46945816 37.49111542 -9.45205956 43.84840911 -9.42626953 50.20593262 C-9.40488193 55.57730929 -9.402902 60.94792831 -9.42918587 66.31929207 C-9.43354231 68.8413126 -9.40888171 71.36202357 -9.38365173 73.88389587 C-9.38892248 75.43098538 -9.39564494 76.97807085 -9.40405273 78.52514648 C-9.38914291 79.22605911 -9.37423309 79.92697174 -9.35887146 80.64912415 C-9.41487874 84.47286709 -9.74295427 85.75005282 -12.5372467 88.46717834 C-13.34995529 88.97300949 -14.16266388 89.47884064 -15 90 C-15.20877648 79.16902966 -15.36856776 68.33853989 -15.46630955 57.50596523 C-15.51322846 52.47550189 -15.57683448 47.44641763 -15.67895508 42.41674805 C-15.77694112 37.56017129 -15.83059749 32.70491839 -15.85389519 27.84742928 C-15.87049098 25.99693014 -15.90290187 24.14650139 -15.95157051 22.29656792 C-16.31675614 7.83693327 -16.31675614 7.83693327 -13.04415894 3.27151489 C-8.69309526 -0.26123225 -5.51056812 -2.11043034 0 0 Z " fill="#F6F6F6" transform="translate(175,301)"/>
<path d="M0 0 C0.66040164 17.42613663 0.8299139 33.30304111 -5.24804688 49.90966797 C-6.2943637 52.81829284 -7.12458713 55.78620813 -8 58.75 C-11.41075302 68.56290419 -16.84720502 74.89491767 -25.796875 80.03125 C-33.04549551 83.37676716 -41.81307315 83.29888212 -49.32421875 80.96875 C-56.4647561 77.74341318 -60.98823419 73.69372623 -65 67 C-65.43183594 66.30003906 -65.86367187 65.60007812 -66.30859375 64.87890625 C-69.60450354 58.66343622 -70.34967923 51.87175392 -69 45 C-64.99185847 33.31762186 -56.405705 24.48168208 -48 15.75 C-47.28200226 14.99864777 -46.56400452 14.24729553 -45.82424927 13.47317505 C-31.5387026 -1.14455225 -20.03900469 -4.70538205 0 0 Z " fill="#F9F9F9" transform="translate(152,95)"/>
<path d="M0 0 C16.83 0 33.66 0 51 0 C49.35815022 4.10462445 47.63199642 7.52216634 45.40234375 11.3046875 C45.04918594 11.90572296 44.69602814 12.50675842 44.33216858 13.12600708 C43.20385474 15.04426917 42.07070089 16.95962178 40.9375 18.875 C40.20347125 20.12221651 39.46974493 21.36961105 38.73632812 22.6171875 C34.66157023 29.53972927 30.54383323 36.43561189 26.40106201 43.31762695 C24.07291763 47.19185693 21.77394923 51.08184363 19.4959259 54.98574829 C17.95417669 57.62585001 16.40276384 60.26020629 14.8503418 62.89404297 C14.06187301 64.23723754 13.27782745 65.58303657 12.49780273 66.93115234 C11.34737332 68.9169028 10.18131707 70.89268307 9.01171875 72.8671875 C8.66686935 73.47118378 8.32201996 74.07518005 7.96672058 74.69747925 C6.56974135 77.02758425 5.50705704 78.73622048 3.06176758 80.00830078 C0.36263243 79.99743393 -1.57888114 79.14330613 -4 78 C-3.35241167 51.96050896 -1.60726749 25.99580456 0 0 Z " fill="#010101" transform="translate(165,141)"/>
<path d="M0 0 C3.375 0.6875 3.375 0.6875 4.375 1.6875 C4.53548891 3.56642253 4.62688253 5.45127752 4.69140625 7.3359375 C4.73338135 8.55337646 4.77535645 9.77081543 4.81860352 11.02514648 C4.85871574 12.37091677 4.89833513 13.71670181 4.9375 15.0625 C4.96926834 16.07511398 4.96926834 16.07511398 5.00167847 17.10818481 C5.52439756 33.96556628 5.47335086 50.8241097 5.375 67.6875 C1.085 67.6875 -3.205 67.6875 -7.625 67.6875 C-7.76008225 53.18867131 -7.62448461 38.69024385 -7.36154175 24.19354248 C-7.32880153 22.27016166 -7.30124825 20.34668567 -7.27883911 18.42315674 C-7.24567164 15.69049794 -7.19351892 12.95881892 -7.13671875 10.2265625 C-7.13032379 9.39423096 -7.12392883 8.56189941 -7.11734009 7.7043457 C-7.05737305 5.38916016 -7.05737305 5.38916016 -6.625 1.6875 C-3.625 -0.3125 -3.625 -0.3125 0 0 Z " fill="#F2F2F2" transform="translate(245.625,362.3125)"/>
<path d="M0 0 C0 1.98 0 3.96 0 6 C-0.67804688 6.08636719 -1.35609375 6.17273438 -2.0546875 6.26171875 C-7.19625652 7.037939 -11.51628273 8.04346674 -16.125 10.5 C-26.83265841 16.17171282 -40.96447644 16.9476288 -52.6953125 13.84375 C-57.95158458 11.91941988 -62.98095423 9.46685712 -68 7 C-68 6.34 -68 5.68 -68 5 C-65 3 -65 3 -62.4375 3.125 C-59 4 -59 4 -57.125 4.96484375 C-47.64195909 9.7232982 -34.20437099 10.06098415 -24.06640625 6.9765625 C-20.96882388 5.77255522 -17.99411774 4.43923256 -15 3 C-9.88662107 1.01361911 -5.56757612 -0.42827509 0 0 Z " fill="#E2E2E2" transform="translate(233,388)"/>
<path d="M0 0 C7.82823122 -0.95423134 13.16172902 1.04507394 20.1171875 4.58984375 C28.89599416 8.88408386 42.91343673 8.9059571 52.09765625 5.84765625 C54.22951264 4.96407398 56.33884693 4.02145898 58.40625 2.99609375 C61.45100774 1.82679673 62.92659031 2.03692813 66 3 C66.99 3.495 66.99 3.495 68 4 C68 4.66 68 5.32 68 6 C53.02784435 13.35880293 38.41173233 17.12130968 21.9375 12.25 C17.6959256 10.7675592 13.79539101 8.95858147 9.85546875 6.81640625 C6.64663454 5.4045192 3.47486434 5.2482046 0 5 C0 3.35 0 1.7 0 0 Z " fill="#E4E4E4" transform="translate(256,389)"/>
<path d="M0 0 C17.38032367 -1.27866141 30.67387565 3.59955538 45.625 12.3125 C46.55658936 12.83287842 47.48817871 13.35325684 48.44799805 13.8894043 C54.70195242 17.74855319 54.70195242 17.74855319 55.57714844 21.42333984 C55.58515613 23.69618871 55.42396333 25.76995288 55 28 C51.55162803 26.73996736 48.78735353 25.30457577 45.85546875 23.1015625 C44.71561523 22.25851563 44.71561523 22.25851563 43.55273438 21.3984375 C41.98716253 20.22458182 40.42205134 19.05011148 38.85742188 17.875 C26.68014925 8.87306682 14.88963511 5.66748219 0 4 C0 2.68 0 1.36 0 0 Z " fill="#0A0A0A" transform="translate(223,28)"/>
<path d="M0 0 C1.2065625 0.0309375 1.2065625 0.0309375 2.4375 0.0625 C2.96224949 6.05214064 1.89392381 8.55676391 -1.9375 13.125 C-2.86693232 14.26371176 -3.79394456 15.40440233 -4.71875 16.546875 C-5.19441406 17.12759766 -5.67007813 17.70832031 -6.16015625 18.30664062 C-8.3736176 21.07809153 -10.402378 23.97146013 -12.4375 26.875 C-16.24695334 32.25755691 -20.12555945 37.58492103 -24.0625 42.875 C-24.57925293 43.57536377 -25.09600586 44.27572754 -25.62841797 44.99731445 C-29.32819184 49.94534592 -29.32819184 49.94534592 -31.5625 51.0625 C-32.2225 50.7325 -32.8825 50.4025 -33.5625 50.0625 C-32.27770302 46.61880419 -30.78675047 43.62236047 -28.796875 40.53515625 C-28.24281982 39.67043701 -27.68876465 38.80571777 -27.11791992 37.91479492 C-26.52213135 36.9941626 -25.92634277 36.07353027 -25.3125 35.125 C-24.05321047 33.16417485 -22.79410148 31.20323373 -21.53515625 29.2421875 C-20.88434082 28.23124023 -20.23352539 27.22029297 -19.56298828 26.17871094 C-17.55118267 23.04487072 -15.55257783 19.90301808 -13.55859375 16.7578125 C-12.92018555 15.75097412 -12.28177734 14.74413574 -11.62402344 13.70678711 C-10.38849366 11.75739926 -9.15345614 9.80769931 -7.91894531 7.85766602 C-7.36174805 6.98037842 -6.80455078 6.10309082 -6.23046875 5.19921875 C-5.73828857 4.42280029 -5.2461084 3.64638184 -4.73901367 2.84643555 C-2.90856199 0.07094054 -2.90856199 0.07094054 0 0 Z " fill="#070707" transform="translate(139.5625,104.9375)"/>
<path d="M0 0 C0.66 0 1.32 0 2 0 C2.99 2.64 3.98 5.28 5 8 C7.97 8.33 10.94 8.66 14 9 C14 9.99 14 10.98 14 12 C11 14.1875 11 14.1875 8 16 C8.66 19.3 9.32 22.6 10 26 C6 25 6 25 4.0625 23.3125 C3.381875 22.879375 2.70125 22.44625 2 22 C-0.52363988 22.62533375 -0.52363988 22.62533375 -3 24 C-4.66666667 24.66666667 -6.33333333 25.33333333 -8 26 C-7.49287967 22.28111761 -6.88391785 19.26545761 -5 16 C-5.5775 15.731875 -6.155 15.46375 -6.75 15.1875 C-9.05550043 13.97070811 -11.02056192 12.69666121 -13 11 C-13 10.34 -13 9.68 -13 9 C-9.7 8.67 -6.4 8.34 -3 8 C-2.01 5.36 -1.02 2.72 0 0 Z " fill="#E7E7E7" transform="translate(332,161)"/>
<path d="M0 0 C0.99 0.33 1.98 0.66 3 1 C3.33 3.64 3.66 6.28 4 9 C7.3 9 10.6 9 14 9 C12 13 12 13 9 15 C9.33 18.63 9.66 22.26 10 26 C5 24 5 24 3 22 C-0.44165321 22.35299007 -2.06872538 23.04581692 -5 25 C-5.99 25 -6.98 25 -8 25 C-7.01 21.7 -6.02 18.4 -5 15 C-6.175625 14.62875 -6.175625 14.62875 -7.375 14.25 C-10 13 -10 13 -12 9 C-8.7 9 -5.4 9 -2 9 C-1.855625 7.700625 -1.71125 6.40125 -1.5625 5.0625 C-1.125 1.125 -1.125 1.125 0 0 Z " fill="#EDEDED" transform="translate(374,177)"/>
<path d="M0 0 C0.99 0 1.98 0 3 0 C4.49821059 3.37097383 5 5.20442119 5 9 C8.3 9 11.6 9 15 9 C13.86280581 12.41158256 12.95657056 13.11854601 10 15 C9.34 15 8.68 15 8 15 C8.33 15.721875 8.66 16.44375 9 17.1875 C10.00603529 20.01697427 10.16977402 22.02895466 10 25 C7.03824877 24.38722388 5.61941217 23.74627478 3 22 C-0.03452373 22.37931547 -1.37561021 23.25040681 -4 25 C-4.99 25 -5.98 25 -7 25 C-6.67 21.7 -6.34 18.4 -6 15 C-6.99 14.38125 -7.98 13.7625 -9 13.125 C-9.99 12.42375 -10.98 11.7225 -12 11 C-12 10.34 -12 9.68 -12 9 C-8.7 8.67 -5.4 8.34 -2 8 C-1.34 5.36 -0.68 2.72 0 0 Z " fill="#EDEDED" transform="translate(289,177)"/>
<path d="M0 0 C0.99 0.66 1.98 1.32 3 2 C3.1875 4.9375 3.1875 4.9375 3 8 C3 8.99 3 9.98 3 11 C3.33 11.33 3.66 11.66 4 12 C4.46171829 16.38632379 4.46171829 16.38632379 2.765625 18.640625 C0.54020654 20.35400028 -0.71622343 20.40283777 -3.5 20.375 C-4.2734375 20.38273437 -5.046875 20.39046875 -5.84375 20.3984375 C-8.49370961 19.90877105 -9.38518546 19.12421976 -11 17 C-11.46369062 13.38321316 -10.8454602 11.11421408 -9 8 C-9.33 7.67 -9.66 7.34 -10 7 C-10.25 4.5625 -10.25 4.5625 -10 2 C-6.31282562 -0.45811625 -4.35654296 -0.31118164 0 0 Z " fill="#202020" transform="translate(322,250)"/>
<path d="M0 0 C2.51594502 0.08234002 3.86661565 0.21158988 6.125 1.375 C7.6016455 4.42673403 6.66324295 7.06848805 6.0625 10.3125 C6.3925 10.6425 6.7225 10.9725 7.0625 11.3125 C7.3125 14.75 7.3125 14.75 7.0625 18.3125 C3.25794419 20.84887054 0.52302469 20.90723663 -3.9375 20.3125 C-5.9375 19.125 -5.9375 19.125 -6.9375 17.3125 C-7.40606135 13.56400923 -7.09252531 12.54503796 -4.9375 9.3125 C-5.2675 8.9825 -5.5975 8.6525 -5.9375 8.3125 C-6.125 5.375 -6.125 5.375 -5.9375 2.3125 C-3.9375 0.3125 -3.9375 0.3125 0 0 Z " fill="#1E1E1E" transform="translate(376.9375,249.6875)"/>
<path d="M0 0 C1.299375 0.2475 1.299375 0.2475 2.625 0.5 C0.75 4.375 0.75 4.375 -0.375 5.5 C0.40875 5.95375 1.1925 6.4075 2 6.875 C4.625 8.5 4.625 8.5 6.625 10.5 C6.29146624 16.61478564 6.29146624 16.61478564 4.3515625 19.19140625 C1.59116709 21.28356114 -0.84779208 21.03619622 -4.20703125 20.91015625 C-6.375 20.5 -6.375 20.5 -9 18.4375 C-10.86228715 14.45897745 -10.65792356 12.70513833 -9.375 8.5 C-5.18339339 0.76791013 -5.18339339 0.76791013 0 0 Z " fill="#0F0F0F" transform="translate(350.375,249.5)"/>
<path d="M0 0 C0 2.31 0 4.62 0 7 C-11.86187549 10.36053134 -24.53079404 12.61757026 -36 7 C-36 5.02 -36 3.04 -36 1 C-35.03964844 1.32355469 -34.07929688 1.64710938 -33.08984375 1.98046875 C-28.57539386 3.26431155 -24.23043938 3.33103828 -19.5625 3.3125 C-18.35110352 3.33666992 -18.35110352 3.33666992 -17.11523438 3.36132812 C-11.00077339 3.36625517 -5.68296744 0 0 0 Z " fill="#131313" transform="translate(313,318)"/>
<path d="M0 0 C0.53874756 0.21293701 1.07749512 0.42587402 1.63256836 0.64526367 C7.42405223 2.77634535 12.4192324 3.43705936 18.5625 3.3125 C19.36107422 3.31572266 20.15964844 3.31894531 20.98242188 3.32226562 C26.28924404 3.2746902 30.90051041 2.46617627 36 1 C36 2.98 36 4.96 36 7 C24.42373455 11.04326943 12.41106882 11.91856415 1 7 C0 6 0 6 -0.0625 2.9375 C-0.041875 1.968125 -0.02125 0.99875 0 0 Z " fill="#121212" transform="translate(176,318)"/>
<path d="M0 0 C0 1.98 0 3.96 0 6 C-8.65948139 11.22836612 -20.41673094 11.72432501 -30.2644043 9.48510742 C-30.83715088 9.32502197 -31.40989746 9.16493652 -32 9 C-32 7.02 -32 5.04 -32 3 C-30.72769531 3.23976563 -30.72769531 3.23976563 -29.4296875 3.484375 C-18.14124915 5.18149785 -9.95794295 0 0 0 Z " fill="#0C0C0C" transform="translate(313,341)"/>
<path d="M0 0 C1.0209375 0.433125 1.0209375 0.433125 2.0625 0.875 C3.031875 1.24625 4.00125 1.6175 5 2 C5.969375 2.37125 6.93875 2.7425 7.9375 3.125 C15.54423082 5.25287404 24.33848985 4.45766936 32 3 C32 4.98 32 6.96 32 9 C22.2938386 11.70390763 10.1215073 11.14613968 1 7 C0 6 0 6 -0.0625 2.9375 C-0.041875 1.968125 -0.02125 0.99875 0 0 Z " fill="#0A0A0A" transform="translate(176,341)"/>
<path d="M0 0 C0 1.98 0 3.96 0 6 C-8.35873272 9.58231402 -16.07985057 9.29551415 -25 9 C-25 7.35 -25 5.7 -25 4 C-24.09378906 3.96261719 -23.18757813 3.92523438 -22.25390625 3.88671875 C-15.68970776 3.53246042 -9.81585972 3.03480203 -3.671875 0.62109375 C-2 0 -2 0 0 0 Z " fill="#050505" transform="translate(312,365)"/>
<path d="M0 0 C0.63164062 0.20496094 1.26328125 0.40992188 1.9140625 0.62109375 C9.59467628 2.93413162 17.0039578 3.66148143 25 4 C25 5.65 25 7.3 25 9 C6.95899772 9.55353075 6.95899772 9.55353075 0 6 C0 4.02 0 2.04 0 0 Z " fill="#050505" transform="translate(177,365)"/>
<path d="M0 0 C2.64 0 5.28 0 8 0 C8 6.6 8 13.2 8 20 C6.35 20 4.7 20 3 20 C3 15.05 3 10.1 3 5 C2.01 5 1.02 5 0 5 C0 3.35 0 1.7 0 0 Z " fill="#0C0C0C" transform="translate(287,250)"/>
<path d="M0 0 C3.63 0 7.26 0 11 0 C11 1.32 11 2.64 11 4 C9.34467377 5.01866229 7.67739862 6.01810813 6 7 C5.12177688 9.08533633 5.12177688 9.08533633 5 11 C3.35 11 1.7 11 0 11 C0 7.37 0 3.74 0 0 Z " fill="#151515" transform="translate(298,55)"/>
<path d="M0 0 C0.66 0 1.32 0 2 0 C0.45121188 3.74474265 -1.84688039 6.02261481 -4.75390625 8.80859375 C-5.69041016 9.72060547 -6.62691406 10.63261719 -7.59179688 11.57226562 C-9.07817271 13.00898908 -10.56753973 14.44231494 -12.06225586 15.87036133 C-13.50984701 17.25740775 -14.94455892 18.65785621 -16.37890625 20.05859375 C-17.2407251 20.88673584 -18.10254395 21.71487793 -18.99047852 22.56811523 C-21.12469333 25.1509015 -21.68259361 26.70667932 -22 30 C-22.33 30 -22.66 30 -23 30 C-23.42491887 25.70831945 -23.50378599 23.6741842 -20.875 20.15625 C-19.92625 19.2796875 -18.9775 18.403125 -18 17.5 C-17.50105225 17.02933105 -17.00210449 16.55866211 -16.48803711 16.07373047 C-12.96899391 12.78086716 -9.32644548 9.62200894 -5.65234375 6.50390625 C-3.49879648 4.54382186 -1.798217 2.28235235 0 0 Z " fill="#DBDBDB" transform="translate(290,216)"/>
<path d="M0 0 C2.5 0.125 2.5 0.125 3.5 1.125 C3.625 4.125 3.625 4.125 3.5 7.125 C2.5 8.125 2.5 8.125 0.0625 8.3125 C-2.5 8.125 -2.5 8.125 -4.5 6.125 C-3.77607362 0.18880368 -3.77607362 0.18880368 0 0 Z " fill="#141414" transform="translate(327.5,58.875)"/>
<path d="M0 0 C2.0625 0.4375 2.0625 0.4375 4 1 C3.67 2.65 3.34 4.3 3 6 C1.35 5.67 -0.3 5.34 -2 5 C-1.125 1.125 -1.125 1.125 0 0 Z " fill="#D7D7D7" transform="translate(347,260)"/>
<path d="M0 0 C0.99 0 1.98 0 3 0 C3.33 2.64 3.66 5.28 4 8 C3.67 7.01 3.34 6.02 3 5 C1.68 5.99 0.36 6.98 -1 8 C-0.67 5.36 -0.34 2.72 0 0 Z " fill="#B6B6B6" transform="translate(243,170)"/>
</svg>
